<?xml version="1.0" standalone="no"?>
<!DOCTYPE svg PUBLIC "-//W3C//DTD SVG 20010904//EN"
 "http://www.w3.org/TR/2001/REC-SVG-20010904/DTD/svg10.dtd">
<svg version="1.0" xmlns="http://www.w3.org/2000/svg"
 width="820.000000pt" height="500.000000pt" viewBox="0 0 820.000000 500.000000"
 preserveAspectRatio="xMidYMid meet">
<metadata>
Created by potrace 1.16, written by Peter Selinger 2001-2019
</metadata>
<g transform="translate(0.000000,500.000000) scale(0.100000,-0.100000)"
fill="#000000" stroke="none">
<path d="M4068 4984 c-16 -8 -28 -19 -28 -24 0 -5 -10 -12 -22 -16 -29 -9
-128 -76 -128 -87 0 -4 -4 -6 -9 -3 -5 4 -24 -9 -42 -26 -18 -18 -29 -27 -25
-20 7 11 4 11 -13 0 -12 -7 -21 -16 -21 -20 0 -5 -5 -8 -10 -8 -13 0 -112 -68
-122 -83 -4 -7 -8 -9 -8 -4 0 4 -11 0 -25 -9 -14 -9 -22 -20 -19 -25 3 -5 -1
-6 -9 -3 -19 7 -34 -16 -17 -26 8 -5 7 -9 -5 -13 -9 -4 -13 -3 -10 3 9 14 -9
12 -23 -2 -7 -7 -12 -8 -12 -4 0 5 -7 3 -15 -4 -8 -7 -13 -16 -10 -20 3 -5 0
-12 -6 -16 -8 -4 -9 -3 -5 4 10 17 2 15 -38 -9 -20 -12 -36 -28 -36 -37 0 -12
-3 -13 -8 -5 -9 14 -72 -34 -72 -55 0 -7 -4 -11 -9 -7 -6 3 -10 -111 -11 -299
0 -294 0 -306 20 -326 28 -28 54 -25 80 8 21 26 22 33 19 257 -4 249 -3 256
47 210 12 -11 144 -101 293 -200 l270 -180 1 -292 c0 -161 -3 -293 -6 -293 -3
0 -77 47 -165 105 -88 58 -170 105 -183 105 -27 0 -56 -29 -56 -57 0 -28 21
-45 252 -198 136 -91 213 -136 226 -133 21 6 444 286 454 302 24 35 -5 86 -47
86 -14 0 -94 -46 -185 -105 -88 -58 -163 -105 -165 -105 -3 0 -5 132 -5 293
l1 292 304 203 305 202 0 -240 c0 -227 1 -241 20 -260 25 -25 62 -26 83 -2 15
16 17 54 17 319 0 166 -3 309 -6 318 -4 9 -115 88 -248 176 -133 87 -286 189
-341 226 -55 38 -106 67 -113 67 -7 -1 -11 1 -8 4 5 5 -62 52 -74 51 -3 0 -17
-7 -32 -15z m245 -256 c117 -78 255 -171 307 -205 52 -35 96 -67 97 -71 3 -8
-591 -405 -612 -410 -7 -2 -109 61 -226 139 -118 78 -220 142 -227 142 -6 0
-10 2 -7 5 8 8 -99 71 -109 65 -5 -3 -6 -1 -2 6 4 6 0 14 -11 18 -23 8 -53 33
-53 45 0 5 4 7 9 3 6 -3 14 3 20 12 5 10 18 18 28 18 10 0 17 6 15 13 -1 8 2
11 7 8 5 -4 27 5 48 19 38 27 59 45 34 30 -10 -5 -12 -4 -7 4 4 6 11 9 15 6
12 -7 232 141 223 150 -4 5 -2 6 3 2 6 -3 60 28 120 68 61 41 111 74 113 74 2
1 99 -63 215 -141z"/>
<path d="M3555 3783 c-726 -528 -655 -472 -655 -513 0 -56 51 -66 115 -22 40
27 56 39 190 137 39 29 178 130 310 226 132 96 248 182 257 192 35 34 10 97
-38 97 -10 0 -91 -53 -179 -117z"/>
<path d="M4432 3885 c-17 -13 -22 -25 -20 -48 3 -28 30 -51 303 -250 165 -120
340 -248 390 -285 124 -91 139 -98 170 -78 28 18 34 61 13 88 -22 27 -792 581
-813 585 -11 2 -30 -3 -43 -12z"/>
<path d="M2369 3403 c-1 -5 -1 -11 0 -15 0 -4 -5 -5 -12 -2 -7 2 -24 -6 -37
-18 -14 -13 -26 -22 -27 -21 -2 2 -18 -6 -35 -17 -18 -11 -28 -20 -23 -20 6 0
-5 -8 -23 -17 -22 -11 -31 -21 -27 -31 4 -11 2 -12 -7 -4 -10 8 -20 5 -38 -9
-21 -16 -21 -18 -5 -13 16 5 17 4 5 -4 -8 -6 -17 -9 -22 -6 -10 6 -48 -18 -48
-30 0 -6 5 -5 12 2 7 7 16 12 21 12 5 0 -1 -9 -14 -21 l-24 -20 25 6 c22 5 23
5 6 -6 -14 -9 -21 -8 -35 6 -10 12 -11 15 -2 10 10 -6 12 -4 6 4 -5 9 -13 8
-29 -7 -11 -10 -29 -22 -38 -25 -10 -4 -18 -11 -18 -16 0 -5 -9 -13 -21 -16
-12 -4 -18 -12 -15 -21 3 -7 0 -16 -6 -20 -6 -4 -8 -3 -4 4 3 6 2 13 -3 16 -5
3 -11 -4 -14 -15 -4 -14 -11 -20 -21 -16 -11 4 -13 1 -9 -11 6 -14 4 -15 -9
-5 -12 11 -18 9 -33 -7 -10 -11 -25 -20 -33 -20 -8 0 -12 -6 -9 -15 4 -8 2
-17 -3 -20 -6 -4 -10 -1 -10 6 0 8 -3 9 -13 0 -8 -6 -17 -9 -20 -6 -4 3 -5 2
-2 -2 3 -3 -3 -12 -13 -20 -12 -10 -13 -13 -2 -11 18 4 20 -34 1 -40 -10 -3
-12 0 -8 11 3 9 -1 18 -9 21 -23 9 -27 7 -21 -6 2 -7 1 -22 -4 -33 -5 -14 -8
-16 -8 -4 -1 26 -29 18 -42 -13 -10 -24 -19 -31 -39 -30 -3 0 -6 -167 -8 -371
-3 -346 -2 -373 15 -393 30 -36 752 -514 776 -514 19 0 333 200 430 273 46 36
51 77 12 103 -33 22 -39 19 -226 -106 -82 -55 -151 -100 -154 -100 -3 0 -5
132 -5 293 l0 294 303 201 c166 111 306 202 310 202 4 0 7 -110 7 -245 l0
-245 24 -16 c22 -13 29 -14 53 -2 l28 13 3 316 c2 242 -1 319 -10 331 -12 15
-467 319 -673 449 -72 46 -93 55 -104 46 -12 -9 -13 -9 -7 1 4 6 2 12 -3 12
-6 0 -12 -3 -12 -7z m53 -131 c2 -4 122 -88 268 -185 146 -98 278 -188 294
-201 l30 -23 -311 -208 -311 -207 -198 130 c-110 72 -211 140 -226 152 -15 12
-33 18 -39 14 -7 -4 -9 -3 -6 4 10 14 -77 63 -100 56 -13 -4 -14 -3 -5 3 10 8
10 12 -2 22 -11 9 -20 10 -38 1 -20 -10 -21 -10 -6 3 13 10 15 16 6 25 -9 9
-7 16 8 27 18 15 18 16 -6 10 -19 -5 -22 -4 -10 4 8 6 22 8 31 6 8 -3 39 13
69 35 29 22 58 40 62 40 5 0 7 4 4 8 -3 5 0 9 7 9 21 0 176 107 170 117 -3 5
-1 6 5 2 7 -4 17 -2 24 4 7 6 55 38 106 71 51 33 90 64 87 69 -3 6 0 7 8 4 8
-3 18 -1 22 5 7 13 52 15 57 3z m-672 -531 c14 -8 35 -22 47 -33 12 -11 26
-17 33 -13 6 3 9 2 8 -3 -2 -8 155 -122 168 -122 2 0 12 -7 21 -15 10 -8 81
-57 158 -108 l140 -94 3 -297 2 -297 -132 89 c-73 48 -203 134 -288 189 -85
56 -163 107 -172 115 -16 12 -18 40 -19 298 0 165 -5 290 -11 297 -12 15 8 12
42 -6z"/>
<path d="M5415 3164 c-204 -135 -376 -253 -382 -262 -17 -20 -19 -613 -3 -643
13 -23 62 -26 84 -3 14 13 16 51 16 256 0 192 3 239 13 235 7 -3 109 -68 226
-146 118 -77 218 -138 224 -134 6 3 7 1 3 -5 -8 -13 9 -24 42 -28 27 -3 87 38
74 50 -3 4 2 4 13 0 18 -7 19 -6 6 10 -8 9 -20 15 -27 12 -8 -3 -13 -1 -11 4
2 9 -20 24 -336 238 -92 62 -165 117 -162 122 14 23 608 411 621 406 8 -3 89
-55 180 -116 91 -60 170 -110 175 -110 5 0 9 -5 9 -11 0 -6 7 -8 17 -5 10 4
14 4 10 0 -7 -7 21 -31 37 -32 5 0 12 -4 15 -9 3 -4 15 -15 26 -23 19 -14 19
-14 5 4 -14 18 -13 18 8 12 31 -10 28 2 -4 14 -17 7 -23 14 -17 22 4 7 8 20 8
28 0 8 11 17 25 21 14 4 18 7 9 8 -9 1 -24 10 -34 21 -10 11 -24 20 -31 20 -7
0 -14 3 -16 8 -8 18 -79 62 -91 56 -6 -4 -9 -4 -5 1 10 11 -307 225 -334 225
-13 0 -182 -106 -393 -246z"/>
<path d="M2717 2292 c-23 -26 -21 -55 6 -79 12 -11 166 -125 342 -253 176
-129 349 -255 385 -282 71 -52 100 -58 130 -28 46 46 37 55 -225 246 -99 72
-268 194 -375 272 -202 147 -231 160 -263 124z"/>
<path d="M5390 2285 c-13 -14 -27 -25 -32 -25 -17 0 -97 -67 -90 -75 4 -5 2
-5 -5 -1 -7 4 -21 -2 -33 -14 -11 -11 -21 -19 -22 -18 -8 5 -127 -90 -120 -96
4 -4 1 -6 -5 -4 -7 1 -54 -27 -105 -65 -51 -37 -153 -110 -225 -162 -73 -53
-137 -104 -143 -115 -14 -26 7 -69 37 -76 17 -5 41 6 94 42 40 27 85 61 100
76 16 14 29 24 29 22 0 -7 153 111 169 130 7 9 17 16 22 16 5 0 27 12 49 26
39 26 51 44 29 44 -5 0 -7 -5 -3 -12 4 -7 3 -8 -4 -4 -16 10 -15 14 9 27 15 8
19 8 15 0 -4 -6 0 -11 8 -11 9 0 16 5 16 10 0 6 6 10 13 10 8 0 22 10 33 22
18 20 18 21 1 15 -11 -4 -16 -3 -12 4 4 5 14 8 23 5 24 -7 52 17 48 41 -4 17
0 20 17 15 20 -5 20 -6 1 -13 -13 -5 -14 -8 -4 -8 19 -1 72 47 65 59 -3 5 -1
11 4 14 5 4 12 2 16 -4 9 -15 64 27 75 56 5 13 16 24 23 24 19 0 15 37 -6 58
-15 14 -20 15 -38 4 -12 -8 -18 -9 -14 -3 12 21 -12 11 -35 -14z"/>
<path d="M4040 1797 c-102 -63 -690 -457 -710 -477 -19 -19 -20 -35 -20 -403
0 -291 3 -387 13 -399 6 -9 41 -35 77 -57 36 -22 70 -44 75 -49 6 -4 31 -22
57 -40 39 -27 52 -31 67 -22 27 14 38 13 19 -2 -15 -12 -15 -15 -2 -27 13 -11
15 -10 12 5 -2 13 2 18 14 16 9 -1 20 3 24 9 4 8 3 9 -4 5 -18 -11 -37 4 -21
16 11 7 9 8 -4 4 -10 -3 -28 1 -40 9 -19 14 -20 15 -3 15 15 0 16 3 6 15 -9
11 -9 15 -1 15 7 0 9 5 5 12 -4 7 -3 8 4 4 6 -4 9 -13 6 -20 -4 -10 2 -14 19
-12 14 0 23 4 21 8 -8 13 -107 73 -116 70 -5 -1 -7 1 -5 6 3 4 -20 24 -51 44
l-57 37 3 291 c2 241 5 291 16 287 8 -3 136 -87 285 -186 150 -100 275 -181
279 -181 15 -1 50 -37 54 -56 3 -15 5 -13 10 8 3 15 2 25 -2 23 -5 -3 -19 4
-31 16 l-24 20 23 -11 c13 -7 26 -9 30 -6 3 3 0 6 -8 6 -10 0 -10 3 1 16 12
15 11 16 -8 10 -13 -4 -30 -3 -39 2 -15 8 -15 10 0 15 10 4 15 3 11 -3 -3 -6
0 -10 7 -10 16 0 40 15 39 24 -1 3 1 6 4 6 3 0 8 0 11 0 4 0 1 -6 -5 -13 -10
-13 -6 -27 10 -27 17 0 16 30 -2 51 -10 12 -19 18 -19 14 0 -5 -7 0 -15 11 -8
10 -15 15 -15 9 0 -5 -4 -5 -8 2 -8 13 -75 60 -354 246 -109 73 -197 134 -197
137 -1 7 598 404 615 408 7 2 67 -32 131 -74 65 -43 171 -113 236 -156 112
-73 146 -91 132 -68 -3 6 1 7 10 4 13 -5 13 -9 3 -23 -7 -9 -8 -13 -3 -8 4 4
18 -1 29 -10 21 -18 21 -18 4 2 -11 13 -14 26 -9 34 5 7 10 9 12 4 2 -6 19
-13 37 -16 21 -4 31 -3 27 3 -3 6 -17 10 -31 10 -13 0 -24 4 -24 9 0 5 8 7 19
4 10 -3 22 0 25 6 11 17 26 13 19 -5 -4 -11 -2 -15 6 -13 22 8 16 23 -15 39
-16 8 -34 22 -41 30 -10 13 -11 12 -9 -4 1 -10 11 -25 21 -32 10 -8 15 -14 9
-14 -18 0 -35 17 -39 40 -2 12 -6 24 -7 24 -2 1 -25 18 -53 38 -156 111 -473
318 -487 318 -2 0 -28 -15 -58 -33z"/>
</g>
</svg>
