<!-- <?xml version="1.0" encoding="UTF-8" standalone="no"?> -->
<!DOCTYPE svg PUBLIC "-//W3C//DTD SVG 20010904//EN"
              "http://www.w3.org/TR/2001/REC-SVG-20010904/DTD/svg10.dtd">

<svg fill="{{ .fill }}" width="{{ .width }}" height="{{ .height }}"  viewBox="0 0 72 72" version="1.1" xmlns="http://www.w3.org/2000/svg" xmlns:xlink="http://www.w3.org/1999/xlink">
      <title>instagram</title>
    <!-- <desc>Created with Sketch.</desc> -->
    <defs></defs>
   <g id="Page-1" stroke="none" stroke-width="1" fill="none" fill-rule="evenodd">
        <g id="Social-Icons---Rounded-Black" transform="translate(-264.000000, -939.000000)">
            <g id="instagram" transform="translate(264.000000, 939.000000)">
                <path d="M8,72 L64,72 C68.418278,72 72,68.418278 72,64 L72,8 C72,3.581722 68.418278,-8.11624501e-16 64,0 L8,0 C3.581722,8.11624501e-16 -5.41083001e-16,3.581722 0,8 L0,64 C5.41083001e-16,68.418278 3.581722,72 8,72 Z" id="Rounded" fill="{{ .fill }}"></path>
                <path d="M 0.00,0.00
           C 0.00,0.00 24.00,1.00 24.00,1.00
             24.00,1.00 75.00,1.00 75.00,1.00
             75.00,1.00 51.00,0.00 51.00,0.00
             51.00,0.00 0.00,0.00 0.00,0.00 Z
           M 17.00,3.65
           C 3.29,9.28 3.00,19.21 3.00,32.00
             3.00,32.00 3.00,47.00 3.00,47.00
             3.09,54.20 4.58,60.71 10.09,65.79
             18.08,73.15 36.37,71.02 47.00,71.00
             51.00,70.99 54.11,71.04 58.00,69.78
             75.57,64.07 72.07,41.48 72.00,27.00
             71.97,20.74 71.27,15.26 67.21,10.17
             59.19,0.12 44.45,3.00 33.00,3.00
             27.69,3.00 22.21,2.57 17.00,3.65 Z
           M 21.00,10.20
           C 21.00,10.20 39.00,10.20 39.00,10.20
             51.43,10.00 63.77,7.98 64.00,25.00
             64.07,30.44 64.59,51.15 63.11,55.00
             61.99,57.92 59.80,60.30 57.00,61.69
             53.98,63.18 50.29,62.99 47.00,63.00
             39.13,63.01 20.82,64.92 15.13,59.72
             11.06,56.01 11.02,52.09 11.00,47.00
             10.97,40.69 10.01,21.75 12.45,17.02
             14.46,13.12 17.01,11.68 21.00,10.20 Z
           M 53.25,15.78
           C 48.21,19.59 52.69,24.09 55.87,23.26
             59.23,22.37 61.15,14.54 53.25,15.78 Z
           M 33.00,19.53
           C 13.14,25.84 16.81,52.69 36.00,54.66
             55.58,56.67 62.83,28.73 45.00,20.56
             40.99,18.72 37.23,18.84 33.00,19.53 Z
           M 36.00,26.43
           C 50.58,25.85 51.49,44.88 39.00,46.76
             27.35,48.52 21.04,31.04 36.00,26.43 Z" fill="#FFFFFF"></path>
            </g>
        </g>
    </g>
</svg>
