<svg fill="{{ .fill }}" width="{{ .width }}" height="{{ .height }}"  viewBox="0 0 72 72" version="1.1" xmlns="http://www.w3.org/2000/svg" xmlns:xlink="http://www.w3.org/1999/xlink">
    <!-- Generator: Sketch 49.2 (51160) - http://www.bohemiancoding.com/sketch -->
    <title>instagram</title>
    <desc>Created with Sketch.</desc>
    <defs></defs>
    <g id="Page-1" stroke="none" stroke-width="1" fill="none" fill-rule="evenodd">
        <g id="Social-Icons---Rounded-Black" transform="translate(-264.000000, -939.000000)">
            <g id="instagram" transform="translate(264.000000, 939.000000)">
                <!-- <path d="M8,72 L64,72 C68.418278,72 72,68.418278 72,64 L72,8 C72,3.581722 68.418278,-8.11624501e-16 64,0 L8,0 C3.581722,8.11624501e-16 -5.41083001e-16,3.581722 0,8 L0,64 C5.41083001e-16,68.418278 3.581722,72 8,72 Z" id="Rounded" fill="{{ .fill }}"></path> -->
                <path d="M 136.00,0.11
           C 116.31,3.40 102.01,6.73 84.00,15.75
             72.48,21.53 60.43,29.24 51.00,38.02
             26.61,60.76 12.22,83.62 4.13,116.00
             1.89,124.94 0.01,134.78 0.00,144.00
             0.00,144.00 0.00,195.00 0.00,195.00
             0.00,195.00 0.00,287.00 0.00,287.00
             0.00,287.00 0.00,368.00 0.00,368.00
             0.05,398.19 15.86,435.28 35.30,458.00
             57.11,483.49 83.58,499.77 116.00,507.87
             124.94,510.11 134.78,511.99 144.00,512.00
             144.00,512.00 211.00,512.00 211.00,512.00
             211.00,512.00 368.00,512.00 368.00,512.00
             378.12,511.98 388.22,509.82 398.00,507.37
             451.23,494.06 494.06,451.23 507.37,398.00
             509.82,388.22 511.98,378.12 512.00,368.00
             512.00,368.00 512.00,144.00 512.00,144.00
             511.97,127.91 507.25,112.05 502.00,97.00
             497.90,85.25 489.58,70.96 482.13,61.00
             460.31,31.86 431.16,12.91 396.00,4.13
             387.06,1.89 377.22,0.01 368.00,0.11
             368.00,0.11 234.00,0.11 234.00,0.11
             234.00,0.11 171.00,0.11 171.00,0.11
             171.00,0.11 136.00,0.11 136.00,0.11 Z
           M 143.00,52.09
           C 143.00,52.09 220.00,52.09 220.00,52.09
             220.00,52.09 362.00,52.09 362.00,52.09
             414.46,52.08 459.92,97.54 460.00,150.00
             460.00,150.00 460.00,362.00 460.00,362.00
             459.92,414.42 414.42,459.92 362.00,460.00
             362.00,460.00 150.00,460.00 150.00,460.00
             97.64,459.92 52.08,414.36 52.00,362.00
             52.00,362.00 52.00,148.00 52.00,148.00
             52.36,117.63 70.84,85.61 96.00,69.08
             111.96,58.59 124.44,55.01 143.00,52.09 Z
           M 388.00,92.71
           C 382.27,93.04 377.02,93.97 372.00,96.98
             345.30,112.99 355.27,154.15 387.00,156.68
             390.98,156.99 397.31,155.67 401.00,154.12
             422.31,145.21 427.61,117.11 410.91,101.18
             404.36,94.95 396.78,92.93 388.00,92.71 Z
           M 249.00,123.42
           C 249.00,123.42 239.00,124.29 239.00,124.29
             232.63,125.07 226.19,126.46 220.00,128.15
             195.21,134.93 172.04,149.46 155.30,169.00
             121.33,208.64 113.31,266.91 136.26,314.00
             146.45,334.90 161.12,351.62 180.00,365.09
             192.07,373.70 205.72,379.94 220.00,383.85
             237.51,388.64 255.02,389.93 273.00,387.71
             338.93,379.58 387.41,323.91 388.99,258.00
             388.99,258.00 388.09,245.00 388.09,245.00
             383.82,186.57 341.30,138.34 284.00,126.21
             274.67,124.23 258.33,122.29 249.00,123.42 Z
           M 245.00,176.29
           C 268.14,174.12 289.99,178.89 308.00,194.30
             351.53,231.55 343.68,302.35 292.00,328.19
             276.81,335.78 266.43,336.19 250.00,336.00
             217.55,335.62 188.56,310.12 179.03,280.00
             175.68,269.42 175.98,262.75 176.00,252.00
             176.06,212.85 207.38,182.03 245.00,176.29 Z" fill="#FFFFFF"></path>
            </g>
        </g>
    </g>
</svg>